<svg width="61" height="52" viewBox="0 0 61 52" fill="none" xmlns="http://www.w3.org/2000/svg">
<g id="sentiment_very_satisfied_24dp_E3E3E3_FILL0_wght400_GRAD0_opsz24 1" filter="url(#filter0_d_50_125)">
<path id="Vector" d="M28.1407 26.4233C29.1726 26.8919 30.2423 27.0254 31.3499 26.8237C32.4574 26.6219 33.418 26.1292 34.2316 25.3455L24.9445 21.1276C24.8897 22.2559 25.1507 23.3035 25.7276 24.2702C26.3044 25.2369 27.1088 25.9546 28.1407 26.4233ZM27.0045 18.7683L28.4402 18.2671L28.9621 19.6574L30.3523 19.1355L29.3293 16.3096L26.4827 17.3781L27.0045 18.7683ZM32.6951 21.3528L34.0853 20.831L34.6527 22.2419L36.0429 21.72L34.9744 18.8734L32.1733 19.9626L32.6951 21.3528ZM26.2799 30.5205C25.0204 29.9485 23.9453 29.1719 23.0546 28.1908C22.1639 27.2096 21.4949 26.1233 21.0477 24.9317C20.6004 23.7401 20.3893 22.4818 20.4144 21.1569C20.4395 19.8321 20.7381 18.5399 21.3101 17.2804C21.8822 16.0208 22.6587 14.9458 23.6399 14.0551C24.621 13.1644 25.7074 12.4954 26.899 12.0482C28.0906 11.6009 29.3488 11.3898 30.6737 11.4149C31.9986 11.44 33.2907 11.7386 34.5503 12.3106C35.8098 12.8826 36.8849 13.6592 37.7755 14.6404C38.6662 15.6215 39.3352 16.7079 39.7825 17.8995C40.2298 19.0911 40.4408 20.3493 40.4157 21.6742C40.3906 22.9991 40.0921 24.2912 39.52 25.5508C38.948 26.8103 38.1714 27.8854 37.1903 28.776C36.2092 29.6667 35.1228 30.3357 33.9312 30.783C32.7396 31.2302 31.4813 31.4413 30.1564 31.4162C28.8316 31.3911 27.5394 31.0926 26.2799 30.5205ZM27.1069 28.6995C29.1403 29.6231 31.1832 29.6997 33.2354 28.9293C35.2876 28.159 36.7755 26.7572 37.699 24.7237C38.6226 22.6903 38.6992 20.6475 37.9289 18.5952C37.1585 16.543 35.7567 15.0551 33.7232 14.1316C31.6898 13.2081 29.647 13.1315 27.5947 13.9018C25.5425 14.6721 24.0546 16.074 23.1311 18.1074C22.2076 20.1408 22.131 22.1837 22.9013 24.2359C23.6716 26.2881 25.0735 27.776 27.1069 28.6995Z" fill="#DB25BA"/>
</g>
<defs>
<filter id="filter0_d_50_125" x="-3" y="-12" width="66.8311" height="66.831" filterUnits="userSpaceOnUse" color-interpolation-filters="sRGB">
<feFlood flood-opacity="0" result="BackgroundImageFix"/>
<feColorMatrix in="SourceAlpha" type="matrix" values="0 0 0 0 0 0 0 0 0 0 0 0 0 0 0 0 0 0 127 0" result="hardAlpha"/>
<feOffset/>
<feGaussianBlur stdDeviation="10"/>
<feComposite in2="hardAlpha" operator="out"/>
<feColorMatrix type="matrix" values="0 0 0 0 0.858824 0 0 0 0 0.145098 0 0 0 0 0.729412 0 0 0 1 0"/>
<feBlend mode="normal" in2="BackgroundImageFix" result="effect1_dropShadow_50_125"/>
<feBlend mode="normal" in="SourceGraphic" in2="effect1_dropShadow_50_125" result="shape"/>
</filter>
</defs>
</svg>
